<svg width="48" height="56" viewBox="0 0 48 56" fill="none" xmlns="http://www.w3.org/2000/svg">
<path d="M47.9996 35.5556V33.7778H46.2218C44.0976 33.7778 42.1924 34.7192 40.8883 36.2011V34.2537L41.0751 34.1292C42.628 33.0937 43.5552 31.3613 43.5552 29.4944C43.5552 28.0065 42.9756 26.6073 41.9233 25.5554L39.9996 23.6312L38.0759 25.5559C37.7808 25.8509 37.5267 26.1764 37.3085 26.5205C37.3204 26.3532 37.3331 26.1868 37.3331 26.0177C37.3331 25.1554 37.1704 24.3127 36.8503 23.5112L35.9198 21.1852C35.8266 20.9525 35.7671 20.7115 35.7094 20.4697C40.0096 19.7746 46.2219 18.2286 46.2219 15.1112V11.5554C46.2219 8.79883 41.1283 6.9306 34.4241 6.00592L34.2578 4.67126C33.9246 2.00787 31.649 0 28.9652 0H19.0346C16.3503 0 14.0756 2.00787 13.742 4.67207L13.5756 6.00627C6.87112 6.93042 1.77791 8.79918 1.77791 11.5558V15.1115C1.77791 18.2308 7.99469 19.7754 12.2899 20.4705C12.2322 20.7114 12.1727 20.9533 12.0804 21.1851L11.1499 23.5111C10.8294 24.3121 10.6667 25.1558 10.6667 26.0176C10.6667 27.8205 11.369 29.5156 12.705 30.8516L13.5769 31.7235L14.1883 30.4984C14.486 30.9989 14.8365 31.4658 15.2256 31.9003C12.7241 33.2754 10.6504 35.3779 9.33203 38.013L9.2743 38.1294L8.94519 37.307L9.5734 35.4201C9.70933 35.0159 9.77751 34.5955 9.77751 34.17C9.77751 33.2872 9.47613 32.4795 8.98473 31.8216C9.48522 31.2721 9.77751 30.553 9.77751 29.7779C9.77751 28.616 9.13201 27.5728 8.0928 27.0537L7.77278 26.8937L7.61277 26.5736C7.0941 25.5345 6.05037 24.8889 4.88899 24.8889C3.72709 24.8889 2.68387 25.5344 2.16474 26.5736L2.00473 26.8937L1.59242 27.0991C0.610542 27.5905 0 28.5769 0 29.6757C0 30.4694 0.326387 31.2026 0.866873 31.7327C0.332287 32.4054 0 33.2455 0 34.1701C0 34.596 0.0686404 35.0156 0.20365 35.4187L4.21892 47.462C5.03261 49.9099 7.31463 51.5555 9.89609 51.5555C11.5308 51.5555 13.1013 50.8736 14.2223 49.7049V55.1112H32.0003V53.3334H24.8895L24.889 36.4444L27.9274 38.7228L30.6066 32.4719C31.6689 32.7405 32.6671 33.181 33.57 33.7779L31.9999 33.7775V35.5553C31.9999 38.2709 33.5304 40.6333 35.7743 41.8307C35.6392 42.0807 35.5556 42.3625 35.5556 42.6667V44.4445C35.5556 45.425 36.3529 46.2223 37.3334 46.2223H38.2221C38.5349 46.2223 38.8317 46.1582 39.1108 46.0586L39.1113 47.111V48.3393L38.2207 48.7847C37.7948 48.9979 37.443 49.3502 37.2298 49.7766L36.9061 50.4248C36.832 50.5712 36.6784 50.6667 36.5129 50.6667C35.5583 50.6667 34.7128 51.2753 34.4096 52.1831L33.8237 53.9423L35.5087 54.5041L36.0947 52.7467C36.1565 52.5649 36.3233 52.444 36.5129 52.444C37.3575 52.444 38.1185 51.9748 38.4953 51.218L38.8189 50.5698C38.8607 50.4852 38.9308 50.4161 39.0153 50.3734L39.1112 50.327V55.1109H40.889V50.6433C41.0436 50.7597 41.2054 50.8629 41.3745 50.9588L41.5041 51.2183C41.8818 51.9739 42.6419 52.4434 43.4864 52.4434C43.676 52.4434 43.8428 52.5643 43.9042 52.7429L44.4901 54.5021L46.1752 53.9403L45.5893 52.1802C45.4542 51.7765 45.2079 51.4369 44.896 51.1792C45.6852 50.716 46.2221 49.8681 46.2221 48.8885V43.555C46.2221 42.6263 45.743 41.8085 45.0211 41.3313C46.8213 40.0393 48 37.9346 48 35.555L47.9996 35.5556ZM46.2218 35.5556C46.2218 38.4971 43.8298 40.8891 40.8883 40.8891C40.8887 37.9476 43.2807 35.5556 46.2218 35.5556ZM39.3332 26.8137L40.0001 26.1468L40.6669 26.8137C41.3829 27.5292 41.7775 28.482 41.7775 29.4952C41.7775 30.7662 41.1465 31.9459 40.0896 32.6508L39.9996 32.7095L39.9101 32.6499C38.8532 31.9449 38.2217 30.7653 38.2217 29.4952C38.2217 28.482 38.6163 27.5291 39.3332 26.8137L39.3332 26.8137ZM36.4512 29.3452C36.4502 29.3957 36.4439 29.4447 36.4439 29.4952C36.4439 31.3617 37.3712 33.0946 38.924 34.13L39.1108 34.2546V36.202C38.5481 35.5628 37.8762 35.0214 37.1198 34.6164C36.0184 33.2713 34.6551 32.2136 33.1191 31.4921C33.3696 31.1748 33.6028 30.8438 33.8096 30.4965L34.4842 31.6621L35.3561 30.7902C35.7915 30.3538 36.1543 29.8665 36.4511 29.3451L36.4512 29.3452ZM28.4442 30.3262V29.8593C30.2725 28.767 31.4985 26.9564 31.87 24.8885L31.9995 24.889C33.1914 24.889 34.2423 24.2944 34.8874 23.3921L35.1992 24.1717C35.4356 24.7617 35.5547 25.3822 35.5547 26.0177C35.5547 26.9268 35.3129 27.7992 34.8374 28.5797L33.6114 26.1282L32.9332 28.1638C32.6009 29.1584 32.0445 30.0662 31.3295 30.8313C30.7758 30.6767 30.2121 30.5485 29.6316 30.4758L28.4442 30.3262ZM27.1577 28.5379L26.6663 28.7843V30.6667L23.9998 32.6669L21.3333 30.6667V28.7829L20.8419 28.5374C18.9513 27.5928 17.7771 25.6935 17.7771 23.5807V17.6262C17.7771 16.242 18.3158 14.9411 19.2945 13.9624L19.6927 13.5642L24.137 16.2307L25.7772 14.5901L27.555 16.3679L29.2787 14.6433C29.8919 15.5111 30.2215 16.5434 30.2215 17.6258V23.5802C30.2215 25.6935 29.0473 27.5927 27.1576 28.5379L27.1577 28.5379ZM20.2227 32.0563L23.1106 34.2223L20.8154 35.9442L19.2298 32.243C19.5558 32.1653 19.8876 32.1067 20.2226 32.0562L20.2227 32.0563ZM14.2219 21.3332C14.2219 20.3527 15.0193 19.5554 15.9997 19.5554V23.1112C15.0192 23.1112 14.2219 22.3138 14.2219 21.3334V21.3332ZM15.9993 17.6258V17.7781C15.3488 17.7781 14.7469 17.9667 14.2215 18.2722V14.7601C14.2215 13.3646 14.7974 12.0408 15.8002 11.0808C18.2394 10.823 20.9846 10.6667 23.9993 10.6667C27.0145 10.6667 29.7583 10.823 32.1976 11.0817C33.2013 12.0408 33.7772 13.3636 33.7772 14.7601V18.2722C33.2517 17.9662 32.6503 17.778 31.9994 17.778V17.6262C31.9994 15.7674 31.2757 14.0201 29.961 12.7054L29.3328 12.0759L27.555 13.8537L25.7772 12.0759L23.8616 13.9914L19.4173 11.3249L18.0377 12.7045C16.723 14.0196 15.9993 15.7669 15.9993 17.6257L15.9993 17.6258ZM31.9991 19.5554C32.9797 19.5554 33.7769 20.3528 33.7769 21.3332C33.7769 22.3137 32.9796 23.111 31.9991 23.111V19.5554ZM35.5549 18.6917V14.7611C35.5549 13.5664 35.2394 12.4118 34.6675 11.3949C40.8271 12.305 44.4436 13.8924 44.4436 15.1111C44.4436 15.9594 42.0022 17.6322 35.5549 18.6919V18.6917ZM15.5053 4.89244C15.7276 3.11639 17.2449 1.77765 19.0341 1.77765H28.9648C30.754 1.77765 32.2713 3.11639 32.4936 4.89151L32.6045 5.78202C29.8671 5.48518 26.9291 5.33335 23.9994 5.33335C21.0698 5.33335 18.1318 5.48518 15.3948 5.78202L15.5053 4.89244ZM23.9994 7.11071C36.4791 7.11071 44.4435 9.74268 44.4435 11.555V12.5115C40.8624 10.1249 32.3945 8.88849 23.9994 8.88849C15.6044 8.88849 7.13609 10.1249 3.55534 12.5115V11.5555C3.55534 9.74268 11.5199 7.11071 23.9994 7.11071ZM3.55534 15.1108C3.55534 13.892 7.17239 12.3047 13.3315 11.3941C12.76 12.4114 12.4446 13.5661 12.4446 14.7598V18.6914C5.99738 17.6318 3.55533 15.959 3.55533 15.1107L3.55534 15.1108ZM15.0656 28.163L14.3865 26.1265L13.1564 28.5862C12.6923 27.818 12.4446 26.937 12.4446 26.017C12.4446 25.3824 12.5646 24.761 12.8001 24.171L13.1119 23.3914C13.7574 24.2937 14.8079 24.8883 15.9998 24.8883H16.1293C16.5007 26.9557 17.7267 28.7667 19.5551 29.8591V30.3477C18.6518 30.5114 17.7845 30.7796 16.9436 31.105C16.0935 30.2873 15.4403 29.2872 15.0657 28.1631L15.0656 28.163ZM7.88877 34.8552L7.35919 36.4439H2.41842L1.88884 34.8557C1.8152 34.6339 1.77792 34.4039 1.77792 34.1693C1.77792 32.9729 2.75117 31.9996 3.94766 31.9996H5.82962C7.0265 31.9996 8.00017 32.9728 8.00017 34.1693C8.00017 34.4039 7.96244 34.6339 7.8888 34.8553L7.88877 34.8552ZM2.38756 28.6885L3.3299 28.2176L3.75584 27.3679C3.97086 26.9343 4.40542 26.6661 4.8891 26.6661C5.37277 26.6661 5.80734 26.9347 6.02326 27.3675L6.4492 28.2171L7.29881 28.643C7.73065 28.859 8.00021 29.2935 8.00021 29.7772C8.00021 30.1186 7.85975 30.4313 7.61791 30.6695C7.07924 30.3932 6.47647 30.2218 5.8301 30.2218H3.94768C3.35491 30.2218 2.79851 30.3622 2.29253 30.5977C1.98024 30.3986 1.77795 30.0581 1.77795 29.6749C1.77795 29.2544 2.0116 28.8767 2.38754 28.6885H2.38756ZM15.9995 53.3324V40.3675C15.9995 39.3188 15.5913 38.3337 14.8503 37.5923L13.5934 38.8501C13.9989 39.2556 14.2221 39.7943 14.2221 40.3675V46.8147L13.2629 48.0939C12.4715 49.148 11.2128 49.7772 9.89584 49.7772C8.08161 49.7772 6.47697 48.6207 5.90373 46.8997L3.01039 38.2219H7.39793L10.7295 46.5524L12.3801 45.8919L10.1577 40.3366L10.9223 38.8069C12.3214 36.0094 14.6829 33.8833 17.5195 32.7678L20.0715 38.7223L23.1108 36.444V53.3329L15.9995 53.3324ZM27.1838 35.9431L24.8886 34.2211L27.8006 32.0365L28.8043 32.1619L27.1838 35.9431ZM33.7774 35.5544C36.7189 35.5544 39.1109 37.9464 39.1109 40.8879C36.1694 40.8879 33.7774 38.4959 33.7774 35.5544ZM38.2217 44.4437H37.333V42.6659H38.2217C38.7122 42.6659 39.1104 43.065 39.1104 43.5546C39.1109 44.0446 38.7127 44.4437 38.2217 44.4437V44.4437ZM40.8887 45.3324C40.8887 43.8622 42.0851 42.6658 43.5553 42.6658C44.0457 42.6658 44.444 43.0649 44.444 43.5545V48.888C44.444 49.3776 44.0457 49.7767 43.5553 49.7767C42.0851 49.7767 40.8887 48.5803 40.8887 47.1102V45.3324Z" fill="#FFA332"/>
</svg>
