<svg width="147" height="146" viewBox="0 0 147 146" fill="none" xmlns="http://www.w3.org/2000/svg">
<g filter="url(#filter0_i_16_660)">
<ellipse cx="73.344" cy="72.8009" rx="73.1206" ry="72.6331" fill="#D3D8D6"/>
</g>
<path d="M145.965 72.8009C145.965 112.636 113.454 144.934 73.344 144.934C33.2336 144.934 0.723389 112.636 0.723389 72.8009C0.723389 32.9661 33.2336 0.667847 73.344 0.667847C113.454 0.667847 145.965 32.9661 145.965 72.8009Z" stroke="black"/>
<path d="M112.714 55.6061C112.716 55.6061 112.714 55.6063 112.707 55.6061H112.714ZM113.282 55.3714L113.205 55.3477L113.192 54.8483C113.192 54.8479 113.192 54.8475 113.191 54.8472C113.125 54.7577 113.035 54.6835 112.921 54.6417C112.821 54.605 112.733 54.6059 112.716 54.6061L112.714 54.6061H98.6281H98.1996L98.134 55.0296L92.9786 88.314L92.8893 88.8906H93.4727H102.611C102.873 88.8906 103.101 88.7198 103.178 88.474L103.179 88.4703L113.282 55.3714ZM42.8158 54.6046H42.1489L42.3359 55.2448L52.0596 88.5293L52.1647 88.8891H52.5395H62.2735H62.857L62.7676 88.3125L57.6114 55.028L57.5458 54.6046H57.1173H42.8158ZM65.5241 88.4656L65.5897 88.8891H66.0182H76.0235H76.5235V88.3891V55.1046V54.6046H76.0235H60.8619H60.2785L60.3678 55.1811L65.5241 88.4656ZM79.2232 88.3891V88.8891H79.7232H89.7293H90.1578L90.2234 88.4656L95.3797 55.1811L95.469 54.6046H94.8856H79.7232H79.2232V55.1046V88.3891ZM112.715 51.8969C113.747 51.8969 114.69 52.361 115.319 53.1766L115.361 53.2336C115.99 54.0848 116.172 55.15 115.863 56.1628L115.863 56.1629L105.759 89.2597C105.332 90.6587 104.068 91.5951 102.61 91.5951H91.3205H91.315H91.308H64.4369H64.4299H64.4236H53.6223H52.9553L53.1424 92.2353L56.0413 102.156L56.1464 102.516H56.5212H95.9097C95.9545 102.516 96.0016 102.519 96.0524 102.524L96.0873 102.527L96.1223 102.526C96.2521 102.52 96.3745 102.516 96.496 102.516C101.399 102.516 105.39 106.514 105.39 111.429C105.39 116.344 101.399 120.341 96.496 120.341C91.5935 120.341 87.6021 116.344 87.6021 111.429C87.6021 109.399 88.2839 107.528 89.4287 106.027L90.0414 105.224H89.0311H65.7969H64.7862L65.3994 106.027C66.5448 107.528 67.2259 109.399 67.2259 111.429C67.2259 116.344 63.2353 120.341 58.332 120.341C53.4294 120.341 49.4381 116.344 49.4381 111.429C49.4381 108.341 51.0147 105.614 53.4064 104.013L53.7109 103.809L53.6082 103.457L49.8786 90.6915V90.691L49.8585 90.6223L39.0717 53.6998V53.699L39.0516 53.6303L34.8902 39.388L34.7851 39.0282H34.4103H24.0143C23.2691 39.0282 22.6641 38.4233 22.6641 37.6748C22.6641 36.9263 23.2691 36.3214 24.0143 36.3214H35.7965C36.395 36.3214 36.9234 36.7171 37.092 37.2941C37.092 37.2942 37.092 37.2942 37.092 37.2942L41.2526 51.5371L41.3577 51.8969H41.7326H112.715ZM96.4968 117.636C99.9137 117.636 102.691 114.851 102.691 111.43C102.691 108.008 99.9136 105.225 96.4968 105.225C93.0799 105.225 90.3026 108.008 90.3026 111.43C90.3026 114.851 93.0798 117.636 96.4968 117.636ZM58.3319 117.636C61.7488 117.636 64.5261 114.851 64.5261 111.43C64.5261 108.008 61.7487 105.225 58.3319 105.225C54.9158 105.225 52.1385 108.008 52.1385 111.43C52.1385 114.851 54.9155 117.636 58.3319 117.636Z" fill="#1E312A" stroke="black"/>
<defs>
<filter id="filter0_i_16_660" x="0.223389" y="0.167847" width="146.241" height="165.266" filterUnits="userSpaceOnUse" color-interpolation-filters="sRGB">
<feFlood flood-opacity="0" result="BackgroundImageFix"/>
<feBlend mode="normal" in="SourceGraphic" in2="BackgroundImageFix" result="shape"/>
<feColorMatrix in="SourceAlpha" type="matrix" values="0 0 0 0 0 0 0 0 0 0 0 0 0 0 0 0 0 0 127 0" result="hardAlpha"/>
<feOffset dy="50"/>
<feGaussianBlur stdDeviation="10"/>
<feComposite in2="hardAlpha" operator="arithmetic" k2="-1" k3="1"/>
<feColorMatrix type="matrix" values="0 0 0 0 0.61766 0 0 0 0 0.745833 0 0 0 0 0.56559 0 0 0 0.2 0"/>
<feBlend mode="normal" in2="shape" result="effect1_innerShadow_16_660"/>
</filter>
</defs>
</svg>
