<svg width="148" height="148" viewBox="0 0 148 148" fill="none" xmlns="http://www.w3.org/2000/svg">
<circle cx="73.9015" cy="73.6718" r="73.0927" fill="#FFA600" stroke="black"/>
<path d="M121.185 73.3161C121.185 47.0469 99.813 25.6766 73.5458 25.6766C47.2765 25.6766 25.9062 47.0469 25.9062 73.3161C25.9062 90.3291 35.0171 106.033 49.725 114.546V116.489C49.725 118.951 51.729 120.955 54.1912 120.955H92.8979C95.3601 120.955 97.3641 118.951 97.3641 116.489V114.547C112.073 106.034 121.185 90.3295 121.185 73.3149L121.185 73.3161ZM118.187 72.4854L113.298 75.4184L112.223 70.0452C112.19 69.8786 112.128 69.7175 112.04 69.5721L107.574 62.1281C107.306 61.6801 106.822 61.4067 106.297 61.4067H103.32C102.496 61.4067 101.831 62.0739 101.831 62.8951V68.2337L99.5385 70.5262L91.6797 73.1463L86.9055 69.5658C86.5007 62.5374 80.6718 56.9404 73.5453 56.9404C72.3704 56.9404 71.2349 57.107 70.1495 57.393L62.6882 49.9333C62.4084 49.6528 62.032 49.4964 61.6359 49.4964H52.7035L55.0258 46.3999L63.3689 45.0096C64.0864 44.8902 64.613 44.2693 64.613 43.5416V39.9956L72.3203 36.1424L83.7818 37.5744C84.2416 37.6341 84.6943 37.4761 85.0188 37.15L90.2592 31.9112C106.384 38.4444 117.85 54.1245 118.188 72.485L118.187 72.4854ZM82.8262 92.5462C81.8643 92.11 80.9888 90.7496 80.9888 89.6925V88.9153C82.9197 87.6201 84.4861 85.8306 85.5312 83.7379H91.4098C91.5693 83.7379 91.7281 83.7127 91.8805 83.6616L94.3875 82.8246V84.6094L85.3183 93.6786L82.8262 92.5462ZM64.2641 92.5462L63.4499 92.9171L60.146 91.6471V85.2264C60.146 84.4043 59.4803 83.7379 58.6575 83.7379H54.1913C54.0695 83.7379 53.9485 83.7528 53.8314 83.7827L48.7811 85.0448L42.2817 77.2441V69.3718L47.6368 62.6799L59.7451 58.6428L63.0875 61.9852C61.2509 64.2783 60.1459 67.1799 60.1459 70.3391V77.7831C60.1459 82.4175 62.5131 86.5105 66.1007 88.9161L66.1015 89.6926C66.1015 90.7496 65.226 92.1101 64.2641 92.5462L64.2641 92.5462ZM63.1238 77.7823V70.3383C63.1238 64.592 67.7998 59.9174 73.5448 59.9174C79.2897 59.9174 83.9657 64.5918 83.9657 70.3383V77.7823C83.9657 83.5287 79.2897 88.2033 73.5448 88.2033C67.7998 88.2041 63.1238 83.5289 63.1238 77.7823ZM28.8834 73.3161C28.8834 48.6886 48.9182 28.6542 73.5454 28.6542C78.296 28.6542 82.8739 29.4079 87.1719 30.7878L83.428 34.5303L72.24 33.1322C71.9516 33.0937 71.6522 33.1456 71.3897 33.2784L62.4573 37.7446C61.9543 37.9961 61.6361 38.5109 61.6361 39.0751V42.2801L53.9484 43.5619C53.5704 43.6247 53.2325 43.8314 53.0014 44.1364L48.5352 50.0912C48.1973 50.5423 48.1423 51.145 48.3938 51.6496C48.6468 52.1549 49.1616 52.474 49.7259 52.474H61.0192L67.1271 58.5819C66.4426 58.9568 65.7974 59.3945 65.193 59.8802L61.199 55.887C60.7998 55.4877 60.2088 55.3463 59.676 55.527L46.2772 59.9932C46.0045 60.0844 45.7648 60.251 45.5848 60.4758L39.63 67.9197C39.4194 68.1846 39.3047 68.5115 39.3047 68.8495V77.7818C39.3047 78.13 39.4265 78.4664 39.6489 78.7344L47.0929 87.6667C47.4607 88.1061 48.0516 88.2962 48.5979 88.1579L54.375 86.7142H57.1697V92.669C57.1697 93.2852 57.5493 93.8376 58.1238 94.0593L59.6484 94.644L53.3094 97.525C51.299 98.4382 49.7258 100.884 49.7258 103.091V111.079C36.8127 102.921 28.8846 88.685 28.8846 73.3161L28.8834 73.3161ZM72.475 98.6257H74.6159L73.8717 101.603H73.2194L72.475 98.6257ZM73.1792 104.58H73.9116L76.377 113.21L73.5455 116.987L70.7139 113.211L73.1792 104.58ZM94.3885 116.491C94.3885 117.311 93.7213 117.979 92.9 117.979H76.5237L79.2035 114.406C79.4833 114.034 79.5729 113.552 79.4448 113.103L76.5762 103.064L77.9681 97.4972C78.0797 97.0524 77.9798 96.5816 77.6969 96.2201C77.4156 95.8594 76.9817 95.648 76.5236 95.648H70.5688C70.1106 95.648 69.6768 95.8594 69.3955 96.2209C69.1141 96.5824 69.0127 97.0532 69.1243 97.498L70.5146 103.064L67.646 113.104C67.5179 113.552 67.6091 114.035 67.8873 114.407L70.5687 117.979H54.1924C53.3703 117.979 52.7039 117.31 52.7039 116.491V103.092C52.7039 102.035 53.5794 100.674 54.5413 100.238L65.4966 95.258C67.2995 94.4391 68.7424 92.3864 69.0207 90.3792C70.4376 90.8884 71.956 91.1816 73.5458 91.1816C75.1356 91.1816 76.654 90.8884 78.0701 90.3776C78.3499 92.3856 79.7912 94.4376 81.5942 95.2564L92.5495 100.237C93.513 100.674 94.3885 102.035 94.3885 103.092L94.3885 116.491ZM97.3663 111.081V103.092C97.3663 100.886 95.793 98.4394 93.7841 97.527L88.2144 94.9949L96.9307 86.2802C97.2082 86.0012 97.3661 85.6216 97.3661 85.227V80.7609C97.3661 80.283 97.1367 79.8335 96.7484 79.5537C96.3571 79.2739 95.858 79.1977 95.4069 79.3486L91.1695 80.7609H86.6003C86.818 79.8005 86.9445 78.8079 86.9445 77.7831V73.3169L90.5172 75.9967C90.907 76.2914 91.4163 76.3716 91.8807 76.2183L100.813 73.2405C101.032 73.1674 101.231 73.0441 101.395 72.8806L104.373 69.9028C104.651 69.6246 104.809 69.245 104.809 68.8505V64.3843H105.455L109.356 70.8845L110.794 78.0762C110.889 78.5509 111.208 78.9485 111.651 79.145C111.844 79.2307 112.048 79.2723 112.253 79.2723C112.52 79.2723 112.783 79.2008 113.02 79.0593L118.118 75.9999C117.254 90.3306 109.523 103.4 97.3672 111.081L97.3663 111.081Z" fill="#1E312A"/>
</svg>
