<svg width="48" height="48" viewBox="0 0 48 48" fill="none" xmlns="http://www.w3.org/2000/svg">
<mask id="path-1-outside-1_36_116" maskUnits="userSpaceOnUse" x="0" y="0" width="48" height="48" fill="black">
<rect fill="white" width="48" height="48"/>
<path d="M37.7998 20.1868V14.0328C38.6218 14.0328 39.381 13.5945 39.7918 12.8829C40.2026 12.171 40.2026 11.2944 39.7918 10.583C39.3811 9.87107 38.6218 9.43272 37.7998 9.43272H28.5998C27.7782 9.43272 27.0189 9.87103 26.6081 10.583C26.1974 11.2945 26.1974 12.1711 26.6081 12.8829C27.0189 13.5944 27.7782 14.0328 28.5998 14.0328V20.1877C24.2629 21.7203 20.9753 25.3145 19.8348 29.7709L19.3998 29.129V22.4661C20.2217 22.4661 20.981 22.0278 21.3918 21.3159C21.8026 20.6044 21.8026 19.7278 21.3918 19.0159C20.981 18.3044 20.2218 17.8661 19.3998 17.8661H12.5001V5.60005C13.3217 5.60005 14.081 5.16134 14.4918 4.44981C14.9026 3.73831 14.9026 2.8613 14.4918 2.14983C14.081 1.43834 13.3218 1 12.5001 1H3.30015C2.47817 1 1.7189 1.43831 1.30809 2.14983C0.897292 2.86135 0.897312 3.73834 1.30809 4.44981C1.71888 5.1613 2.47813 5.60005 3.30015 5.60005V39.2496L2.10183 41.0068C1.5753 41.7786 1.34906 42.7159 1.46522 43.6431C1.58137 44.5699 2.03182 45.4227 2.73233 46.0407C3.43249 46.6587 4.33461 46.9999 5.26863 46.9999H24.3313C25.454 46.9991 26.5196 46.5041 27.2444 45.6469C30.6611 47.2815 34.5993 47.4402 38.1356 46.0856C41.6724 44.731 44.4973 41.9822 45.9478 38.4834C47.3983 34.985 47.3473 31.0439 45.8061 27.5839C44.2654 24.124 41.3701 21.4497 37.7993 20.1873L37.7998 20.1868ZM27.8333 11.7327C27.8333 11.3094 28.1765 10.9662 28.5998 10.9662H37.7998C38.2231 10.9662 38.5668 11.3094 38.5668 11.7327C38.5668 12.156 38.2231 12.4996 37.7998 12.4996H28.5998C28.1765 12.4996 27.8333 12.156 27.8333 11.7327ZM29.5967 21.4738C29.9164 21.3735 30.1341 21.0764 30.1333 20.7409V14.0327H36.2668V20.7409C36.2664 21.0776 36.4861 21.3751 36.8079 21.4738C39.0123 22.1448 40.9817 23.4262 42.4876 25.1701C43.9936 26.9136 44.975 29.0485 45.3178 31.3271C44.9224 31.4521 44.5427 31.5816 44.1829 31.7103C42.4807 32.3927 40.6571 32.7213 38.8234 32.6764C36.99 32.7209 35.1663 32.3923 33.4638 31.7103C31.592 30.9665 29.5898 30.6067 27.5764 30.6524C25.5666 30.6079 23.568 30.9681 21.6999 31.7112C21.5582 31.7626 21.4093 31.8115 21.2652 31.8646L21.0552 31.5578V31.5582C21.3656 29.2363 22.3353 27.0525 23.8494 25.2653C25.3635 23.4781 27.3578 22.1624 29.5968 21.4739L29.5967 21.4738ZM17.9999 29.7976L22.3486 36.1756C21.158 35.7482 19.8981 35.5446 18.6334 35.5762C17.2335 35.5442 15.8417 35.7939 14.5401 36.3111C13.4053 36.7664 12.1895 36.9858 10.9669 36.9559C9.74909 36.985 8.53823 36.7677 7.40664 36.3172C7.34148 36.2933 7.27106 36.2699 7.20347 36.246L11.6004 29.7977C11.687 29.6706 11.7335 29.5201 11.7335 29.3663V22.4662H17.8669V29.3663C17.8669 29.5201 17.9135 29.6706 18.0001 29.7977L17.9999 29.7976ZM20.1668 20.1662C20.1668 20.3694 20.0858 20.5644 19.9422 20.7081C19.7985 20.8518 19.6034 20.9327 19.3998 20.9327H10.2003C9.77652 20.9327 9.43333 20.5895 9.43333 20.1662C9.43333 19.7429 9.77652 19.3993 10.2003 19.3993H19.3998C19.6034 19.3993 19.7985 19.4802 19.9422 19.6239C20.0858 19.768 20.1668 19.9626 20.1668 20.1662V20.1662ZM2.53286 3.3C2.53286 2.87627 2.87605 2.53307 3.29979 2.53307H12.4998C12.9231 2.53307 13.2663 2.87627 13.2663 3.3C13.2663 3.72333 12.9231 4.06653 12.4998 4.06653H3.29979C2.87605 4.06653 2.53286 3.72333 2.53286 3.3ZM10.9663 5.59998V8.66654H8.66629V10.2H10.9663V13.2459H8.66629V14.7794H10.9663V15.6993C10.8821 15.6734 10.7991 15.6454 10.7133 15.6151V15.6147C10.2236 15.4233 9.70153 15.3298 9.1762 15.3395C8.65008 15.3298 8.12718 15.4233 7.63743 15.6147C7.31406 15.745 6.96763 15.8069 6.61917 15.7964C6.2703 15.8061 5.92306 15.7434 5.5997 15.6119C5.3508 15.5188 5.09421 15.4488 4.83277 15.4022V5.60006L10.9663 5.59998ZM4.83283 16.9709C4.9162 16.9964 4.99754 17.0239 5.08295 17.0542V17.0546C5.57103 17.2457 6.0919 17.3391 6.61602 17.3298C7.14174 17.3395 7.6638 17.2461 8.15355 17.0546C8.47692 16.9231 8.82417 16.8604 9.17302 16.8697C9.52149 16.8604 9.86832 16.9231 10.1913 17.0546C10.4426 17.1477 10.702 17.2181 10.9663 17.2647V17.8665H10.1998C9.37781 17.8665 8.61854 18.3048 8.20774 19.0163C7.79696 19.7282 7.79696 20.6048 8.20774 21.3163C8.61852 22.0282 9.37777 22.4665 10.1998 22.4665V29.1297L4.83284 37.0006L4.83283 16.9709ZM26.3634 44.2402C26.1712 44.6126 25.8794 44.9242 25.5204 45.1407C25.1614 45.3572 24.7494 45.4702 24.3306 45.4665H5.26791C4.70779 45.4665 4.16667 45.2617 3.74654 44.891C3.32604 44.5199 3.05609 44.0087 2.98649 43.4526C2.91688 42.8966 3.05246 42.334 3.36814 41.871L6.30674 37.5607C6.50222 37.6243 6.69406 37.6918 6.89034 37.7615C8.18667 38.2738 9.57242 38.5211 10.9658 38.4899C12.3658 38.5219 13.7575 38.2718 15.0591 37.7546C16.1939 37.2997 17.4098 37.0803 18.6323 37.1098C19.857 37.0803 21.0748 37.3001 22.2121 37.7554C22.7127 37.9444 23.2251 38.1018 23.7451 38.2277L26.2293 41.8709C26.4685 42.2149 26.6077 42.6184 26.6316 43.0365C26.6551 43.4546 26.5624 43.8714 26.3633 44.2401L26.3634 44.2402ZM33.1991 45.4665C31.3973 45.4657 29.6174 45.0683 27.986 44.303C28.3377 43.1876 28.158 41.9727 27.4991 41.0062L22.1593 33.1758L22.2184 33.1552V33.1548C23.9231 32.4716 25.7491 32.1426 27.585 32.1883C29.4208 32.1438 31.2468 32.4728 32.9515 33.1548C34.8192 33.8974 36.8173 34.2569 38.8267 34.2123C40.8373 34.258 42.8371 33.8983 44.706 33.1548C44.9574 33.0641 45.2034 32.9763 45.4535 32.8917C45.4535 32.9945 45.4657 33.0965 45.4657 33.1985C45.4624 36.4512 44.1689 39.5691 41.8694 41.8692C39.5698 44.1691 36.4514 45.4631 33.1991 45.4667L33.1991 45.4665Z"/>
</mask>
<path d="M37.7998 20.1868V14.0328C38.6218 14.0328 39.381 13.5945 39.7918 12.8829C40.2026 12.171 40.2026 11.2944 39.7918 10.583C39.3811 9.87107 38.6218 9.43272 37.7998 9.43272H28.5998C27.7782 9.43272 27.0189 9.87103 26.6081 10.583C26.1974 11.2945 26.1974 12.1711 26.6081 12.8829C27.0189 13.5944 27.7782 14.0328 28.5998 14.0328V20.1877C24.2629 21.7203 20.9753 25.3145 19.8348 29.7709L19.3998 29.129V22.4661C20.2217 22.4661 20.981 22.0278 21.3918 21.3159C21.8026 20.6044 21.8026 19.7278 21.3918 19.0159C20.981 18.3044 20.2218 17.8661 19.3998 17.8661H12.5001V5.60005C13.3217 5.60005 14.081 5.16134 14.4918 4.44981C14.9026 3.73831 14.9026 2.8613 14.4918 2.14983C14.081 1.43834 13.3218 1 12.5001 1H3.30015C2.47817 1 1.7189 1.43831 1.30809 2.14983C0.897292 2.86135 0.897312 3.73834 1.30809 4.44981C1.71888 5.1613 2.47813 5.60005 3.30015 5.60005V39.2496L2.10183 41.0068C1.5753 41.7786 1.34906 42.7159 1.46522 43.6431C1.58137 44.5699 2.03182 45.4227 2.73233 46.0407C3.43249 46.6587 4.33461 46.9999 5.26863 46.9999H24.3313C25.454 46.9991 26.5196 46.5041 27.2444 45.6469C30.6611 47.2815 34.5993 47.4402 38.1356 46.0856C41.6724 44.731 44.4973 41.9822 45.9478 38.4834C47.3983 34.985 47.3473 31.0439 45.8061 27.5839C44.2654 24.124 41.3701 21.4497 37.7993 20.1873L37.7998 20.1868ZM27.8333 11.7327C27.8333 11.3094 28.1765 10.9662 28.5998 10.9662H37.7998C38.2231 10.9662 38.5668 11.3094 38.5668 11.7327C38.5668 12.156 38.2231 12.4996 37.7998 12.4996H28.5998C28.1765 12.4996 27.8333 12.156 27.8333 11.7327ZM29.5967 21.4738C29.9164 21.3735 30.1341 21.0764 30.1333 20.7409V14.0327H36.2668V20.7409C36.2664 21.0776 36.4861 21.3751 36.8079 21.4738C39.0123 22.1448 40.9817 23.4262 42.4876 25.1701C43.9936 26.9136 44.975 29.0485 45.3178 31.3271C44.9224 31.4521 44.5427 31.5816 44.1829 31.7103C42.4807 32.3927 40.6571 32.7213 38.8234 32.6764C36.99 32.7209 35.1663 32.3923 33.4638 31.7103C31.592 30.9665 29.5898 30.6067 27.5764 30.6524C25.5666 30.6079 23.568 30.9681 21.6999 31.7112C21.5582 31.7626 21.4093 31.8115 21.2652 31.8646L21.0552 31.5578V31.5582C21.3656 29.2363 22.3353 27.0525 23.8494 25.2653C25.3635 23.4781 27.3578 22.1624 29.5968 21.4739L29.5967 21.4738ZM17.9999 29.7976L22.3486 36.1756C21.158 35.7482 19.8981 35.5446 18.6334 35.5762C17.2335 35.5442 15.8417 35.7939 14.5401 36.3111C13.4053 36.7664 12.1895 36.9858 10.9669 36.9559C9.74909 36.985 8.53823 36.7677 7.40664 36.3172C7.34148 36.2933 7.27106 36.2699 7.20347 36.246L11.6004 29.7977C11.687 29.6706 11.7335 29.5201 11.7335 29.3663V22.4662H17.8669V29.3663C17.8669 29.5201 17.9135 29.6706 18.0001 29.7977L17.9999 29.7976ZM20.1668 20.1662C20.1668 20.3694 20.0858 20.5644 19.9422 20.7081C19.7985 20.8518 19.6034 20.9327 19.3998 20.9327H10.2003C9.77652 20.9327 9.43333 20.5895 9.43333 20.1662C9.43333 19.7429 9.77652 19.3993 10.2003 19.3993H19.3998C19.6034 19.3993 19.7985 19.4802 19.9422 19.6239C20.0858 19.768 20.1668 19.9626 20.1668 20.1662V20.1662ZM2.53286 3.3C2.53286 2.87627 2.87605 2.53307 3.29979 2.53307H12.4998C12.9231 2.53307 13.2663 2.87627 13.2663 3.3C13.2663 3.72333 12.9231 4.06653 12.4998 4.06653H3.29979C2.87605 4.06653 2.53286 3.72333 2.53286 3.3ZM10.9663 5.59998V8.66654H8.66629V10.2H10.9663V13.2459H8.66629V14.7794H10.9663V15.6993C10.8821 15.6734 10.7991 15.6454 10.7133 15.6151V15.6147C10.2236 15.4233 9.70153 15.3298 9.1762 15.3395C8.65008 15.3298 8.12718 15.4233 7.63743 15.6147C7.31406 15.745 6.96763 15.8069 6.61917 15.7964C6.2703 15.8061 5.92306 15.7434 5.5997 15.6119C5.3508 15.5188 5.09421 15.4488 4.83277 15.4022V5.60006L10.9663 5.59998ZM4.83283 16.9709C4.9162 16.9964 4.99754 17.0239 5.08295 17.0542V17.0546C5.57103 17.2457 6.0919 17.3391 6.61602 17.3298C7.14174 17.3395 7.6638 17.2461 8.15355 17.0546C8.47692 16.9231 8.82417 16.8604 9.17302 16.8697C9.52149 16.8604 9.86832 16.9231 10.1913 17.0546C10.4426 17.1477 10.702 17.2181 10.9663 17.2647V17.8665H10.1998C9.37781 17.8665 8.61854 18.3048 8.20774 19.0163C7.79696 19.7282 7.79696 20.6048 8.20774 21.3163C8.61852 22.0282 9.37777 22.4665 10.1998 22.4665V29.1297L4.83284 37.0006L4.83283 16.9709ZM26.3634 44.2402C26.1712 44.6126 25.8794 44.9242 25.5204 45.1407C25.1614 45.3572 24.7494 45.4702 24.3306 45.4665H5.26791C4.70779 45.4665 4.16667 45.2617 3.74654 44.891C3.32604 44.5199 3.05609 44.0087 2.98649 43.4526C2.91688 42.8966 3.05246 42.334 3.36814 41.871L6.30674 37.5607C6.50222 37.6243 6.69406 37.6918 6.89034 37.7615C8.18667 38.2738 9.57242 38.5211 10.9658 38.4899C12.3658 38.5219 13.7575 38.2718 15.0591 37.7546C16.1939 37.2997 17.4098 37.0803 18.6323 37.1098C19.857 37.0803 21.0748 37.3001 22.2121 37.7554C22.7127 37.9444 23.2251 38.1018 23.7451 38.2277L26.2293 41.8709C26.4685 42.2149 26.6077 42.6184 26.6316 43.0365C26.6551 43.4546 26.5624 43.8714 26.3633 44.2401L26.3634 44.2402ZM33.1991 45.4665C31.3973 45.4657 29.6174 45.0683 27.986 44.303C28.3377 43.1876 28.158 41.9727 27.4991 41.0062L22.1593 33.1758L22.2184 33.1552V33.1548C23.9231 32.4716 25.7491 32.1426 27.585 32.1883C29.4208 32.1438 31.2468 32.4728 32.9515 33.1548C34.8192 33.8974 36.8173 34.2569 38.8267 34.2123C40.8373 34.258 42.8371 33.8983 44.706 33.1548C44.9574 33.0641 45.2034 32.9763 45.4535 32.8917C45.4535 32.9945 45.4657 33.0965 45.4657 33.1985C45.4624 36.4512 44.1689 39.5691 41.8694 41.8692C39.5698 44.1691 36.4514 45.4631 33.1991 45.4667L33.1991 45.4665Z" fill="#FFA600"/>
<path d="M37.7998 20.1868V14.0328C38.6218 14.0328 39.381 13.5945 39.7918 12.8829C40.2026 12.171 40.2026 11.2944 39.7918 10.583C39.3811 9.87107 38.6218 9.43272 37.7998 9.43272H28.5998C27.7782 9.43272 27.0189 9.87103 26.6081 10.583C26.1974 11.2945 26.1974 12.1711 26.6081 12.8829C27.0189 13.5944 27.7782 14.0328 28.5998 14.0328V20.1877C24.2629 21.7203 20.9753 25.3145 19.8348 29.7709L19.3998 29.129V22.4661C20.2217 22.4661 20.981 22.0278 21.3918 21.3159C21.8026 20.6044 21.8026 19.7278 21.3918 19.0159C20.981 18.3044 20.2218 17.8661 19.3998 17.8661H12.5001V5.60005C13.3217 5.60005 14.081 5.16134 14.4918 4.44981C14.9026 3.73831 14.9026 2.8613 14.4918 2.14983C14.081 1.43834 13.3218 1 12.5001 1H3.30015C2.47817 1 1.7189 1.43831 1.30809 2.14983C0.897292 2.86135 0.897312 3.73834 1.30809 4.44981C1.71888 5.1613 2.47813 5.60005 3.30015 5.60005V39.2496L2.10183 41.0068C1.5753 41.7786 1.34906 42.7159 1.46522 43.6431C1.58137 44.5699 2.03182 45.4227 2.73233 46.0407C3.43249 46.6587 4.33461 46.9999 5.26863 46.9999H24.3313C25.454 46.9991 26.5196 46.5041 27.2444 45.6469C30.6611 47.2815 34.5993 47.4402 38.1356 46.0856C41.6724 44.731 44.4973 41.9822 45.9478 38.4834C47.3983 34.985 47.3473 31.0439 45.8061 27.5839C44.2654 24.124 41.3701 21.4497 37.7993 20.1873L37.7998 20.1868ZM27.8333 11.7327C27.8333 11.3094 28.1765 10.9662 28.5998 10.9662H37.7998C38.2231 10.9662 38.5668 11.3094 38.5668 11.7327C38.5668 12.156 38.2231 12.4996 37.7998 12.4996H28.5998C28.1765 12.4996 27.8333 12.156 27.8333 11.7327ZM29.5967 21.4738C29.9164 21.3735 30.1341 21.0764 30.1333 20.7409V14.0327H36.2668V20.7409C36.2664 21.0776 36.4861 21.3751 36.8079 21.4738C39.0123 22.1448 40.9817 23.4262 42.4876 25.1701C43.9936 26.9136 44.975 29.0485 45.3178 31.3271C44.9224 31.4521 44.5427 31.5816 44.1829 31.7103C42.4807 32.3927 40.6571 32.7213 38.8234 32.6764C36.99 32.7209 35.1663 32.3923 33.4638 31.7103C31.592 30.9665 29.5898 30.6067 27.5764 30.6524C25.5666 30.6079 23.568 30.9681 21.6999 31.7112C21.5582 31.7626 21.4093 31.8115 21.2652 31.8646L21.0552 31.5578V31.5582C21.3656 29.2363 22.3353 27.0525 23.8494 25.2653C25.3635 23.4781 27.3578 22.1624 29.5968 21.4739L29.5967 21.4738ZM17.9999 29.7976L22.3486 36.1756C21.158 35.7482 19.8981 35.5446 18.6334 35.5762C17.2335 35.5442 15.8417 35.7939 14.5401 36.3111C13.4053 36.7664 12.1895 36.9858 10.9669 36.9559C9.74909 36.985 8.53823 36.7677 7.40664 36.3172C7.34148 36.2933 7.27106 36.2699 7.20347 36.246L11.6004 29.7977C11.687 29.6706 11.7335 29.5201 11.7335 29.3663V22.4662H17.8669V29.3663C17.8669 29.5201 17.9135 29.6706 18.0001 29.7977L17.9999 29.7976ZM20.1668 20.1662C20.1668 20.3694 20.0858 20.5644 19.9422 20.7081C19.7985 20.8518 19.6034 20.9327 19.3998 20.9327H10.2003C9.77652 20.9327 9.43333 20.5895 9.43333 20.1662C9.43333 19.7429 9.77652 19.3993 10.2003 19.3993H19.3998C19.6034 19.3993 19.7985 19.4802 19.9422 19.6239C20.0858 19.768 20.1668 19.9626 20.1668 20.1662V20.1662ZM2.53286 3.3C2.53286 2.87627 2.87605 2.53307 3.29979 2.53307H12.4998C12.9231 2.53307 13.2663 2.87627 13.2663 3.3C13.2663 3.72333 12.9231 4.06653 12.4998 4.06653H3.29979C2.87605 4.06653 2.53286 3.72333 2.53286 3.3ZM10.9663 5.59998V8.66654H8.66629V10.2H10.9663V13.2459H8.66629V14.7794H10.9663V15.6993C10.8821 15.6734 10.7991 15.6454 10.7133 15.6151V15.6147C10.2236 15.4233 9.70153 15.3298 9.1762 15.3395C8.65008 15.3298 8.12718 15.4233 7.63743 15.6147C7.31406 15.745 6.96763 15.8069 6.61917 15.7964C6.2703 15.8061 5.92306 15.7434 5.5997 15.6119C5.3508 15.5188 5.09421 15.4488 4.83277 15.4022V5.60006L10.9663 5.59998ZM4.83283 16.9709C4.9162 16.9964 4.99754 17.0239 5.08295 17.0542V17.0546C5.57103 17.2457 6.0919 17.3391 6.61602 17.3298C7.14174 17.3395 7.6638 17.2461 8.15355 17.0546C8.47692 16.9231 8.82417 16.8604 9.17302 16.8697C9.52149 16.8604 9.86832 16.9231 10.1913 17.0546C10.4426 17.1477 10.702 17.2181 10.9663 17.2647V17.8665H10.1998C9.37781 17.8665 8.61854 18.3048 8.20774 19.0163C7.79696 19.7282 7.79696 20.6048 8.20774 21.3163C8.61852 22.0282 9.37777 22.4665 10.1998 22.4665V29.1297L4.83284 37.0006L4.83283 16.9709ZM26.3634 44.2402C26.1712 44.6126 25.8794 44.9242 25.5204 45.1407C25.1614 45.3572 24.7494 45.4702 24.3306 45.4665H5.26791C4.70779 45.4665 4.16667 45.2617 3.74654 44.891C3.32604 44.5199 3.05609 44.0087 2.98649 43.4526C2.91688 42.8966 3.05246 42.334 3.36814 41.871L6.30674 37.5607C6.50222 37.6243 6.69406 37.6918 6.89034 37.7615C8.18667 38.2738 9.57242 38.5211 10.9658 38.4899C12.3658 38.5219 13.7575 38.2718 15.0591 37.7546C16.1939 37.2997 17.4098 37.0803 18.6323 37.1098C19.857 37.0803 21.0748 37.3001 22.2121 37.7554C22.7127 37.9444 23.2251 38.1018 23.7451 38.2277L26.2293 41.8709C26.4685 42.2149 26.6077 42.6184 26.6316 43.0365C26.6551 43.4546 26.5624 43.8714 26.3633 44.2401L26.3634 44.2402ZM33.1991 45.4665C31.3973 45.4657 29.6174 45.0683 27.986 44.303C28.3377 43.1876 28.158 41.9727 27.4991 41.0062L22.1593 33.1758L22.2184 33.1552V33.1548C23.9231 32.4716 25.7491 32.1426 27.585 32.1883C29.4208 32.1438 31.2468 32.4728 32.9515 33.1548C34.8192 33.8974 36.8173 34.2569 38.8267 34.2123C40.8373 34.258 42.8371 33.8983 44.706 33.1548C44.9574 33.0641 45.2034 32.9763 45.4535 32.8917C45.4535 32.9945 45.4657 33.0965 45.4657 33.1985C45.4624 36.4512 44.1689 39.5691 41.8694 41.8692C39.5698 44.1691 36.4514 45.4631 33.1991 45.4667L33.1991 45.4665Z" stroke="#FFA600" stroke-width="0.4" mask="url(#path-1-outside-1_36_116)"/>
</svg>
