<svg width="140" height="47" viewBox="0 0 140 47" fill="none" xmlns="http://www.w3.org/2000/svg">
<path d="M27.1763 36.1074L23.2989 27.3289H9.79648L5.83185 36.1136L0 36.1101L16.5171 0.643402L33.0118 36.1101L27.1763 36.1074ZM11.8412 22.7185H21.3348L17.8433 14.9351L17.2169 13.2345L16.5662 11.0676C16.4583 11.502 16.362 11.8756 16.2766 12.1858C16.1912 12.496 16.087 12.8238 15.9628 13.1655C15.7933 13.7694 15.5841 14.3613 15.3363 14.9375L11.8412 22.7185Z" fill="white"/>
<path d="M56.5905 34.7382C56.5905 39.0397 55.7284 42.0762 54.0042 43.8477C52.2799 45.6192 49.3755 46.5044 45.2909 46.5036C42.2468 46.5036 39.8085 45.8629 37.976 44.5814C37.1191 44.0346 36.4165 43.2775 35.9351 42.3822C35.4538 41.4869 35.2096 40.4833 35.2261 39.4669L40.655 39.4438C40.6496 39.8757 40.7673 40.3002 40.9943 40.6676C41.2457 41.0569 41.5866 41.3802 41.9885 41.6107C43.0384 42.1643 44.2192 42.4222 45.4042 42.3562C47.5566 42.3562 49.1168 41.8801 50.085 40.9286C51.0531 39.977 51.5364 38.4019 51.5348 36.2031V33.2467C50.741 34.4461 49.6552 35.4239 48.3795 36.0883C47.1038 36.7527 45.6801 37.0819 44.2422 37.0447C41.1201 37.0447 38.6622 35.972 36.8685 33.8265C35.0748 31.681 34.1778 28.7579 34.1774 25.0574C34.1774 21.5282 35.0902 18.6792 36.9158 16.5102C38.3617 14.8871 40.3103 13.796 42.4498 13.4115C44.5893 13.0271 46.7959 13.3716 48.7164 14.3898C49.9844 15.1375 50.9739 16.2784 51.5348 17.6394V14.0286H56.5905V34.7382ZM51.6753 25.0101C51.6753 22.7394 51.1434 20.9624 50.0795 19.6788C49.5341 19.0359 48.8476 18.5275 48.0736 18.1935C47.2995 17.8594 46.4588 17.7086 45.6169 17.7527C44.7653 17.7158 43.9167 17.8757 43.1369 18.2198C42.3571 18.5639 41.6671 19.0829 41.1203 19.7368C40.0177 21.0595 39.4666 22.8798 39.467 25.1973C39.467 27.5306 39.9949 29.3391 41.0507 30.6227C41.6208 31.2422 42.3156 31.7341 43.0894 32.0657C43.8633 32.3974 44.6985 32.5613 45.5403 32.547C46.3821 32.5327 47.2113 32.3404 47.9734 31.9826C48.7355 31.6248 49.4132 31.1098 49.962 30.4713C51.162 28.9113 51.7691 26.9759 51.6753 25.0101Z" fill="white"/>
<path d="M68.6366 17.5439C69.0475 16.295 69.788 15.1801 70.78 14.3171C71.734 13.5877 72.9121 13.2129 74.1122 13.2569C74.8193 13.2503 75.5243 13.3363 76.209 13.5131C76.9217 13.6724 77.611 13.9228 78.2598 14.2583L76.4423 18.5453C76.0133 18.2456 75.5369 18.0203 75.0331 17.8788C74.4845 17.7169 73.9153 17.6354 73.3434 17.6365C72.613 17.5897 71.8846 17.7552 71.246 18.1128C70.6074 18.4704 70.0858 19.005 69.7441 19.6523C69.0061 20.996 68.6372 23.2521 68.6372 26.4207V36.1142H63.5814V13.9808H68.6372L68.6366 17.5439Z" fill="white"/>
<path d="M80.705 4.4733C80.7039 4.0603 80.7883 3.65172 80.9527 3.27286C81.1171 2.89399 81.358 2.55314 81.6604 2.2718C82.2494 1.67629 83.0497 1.33716 83.8872 1.32842C84.7248 1.31968 85.532 1.64197 86.1333 2.22506C86.4315 2.517 86.6661 2.86733 86.8225 3.25422C86.9789 3.64111 87.0536 4.05616 87.0421 4.4733C87.0479 4.88968 86.9705 5.30305 86.8145 5.68913C86.6584 6.0752 86.4268 6.42617 86.1333 6.72155C85.8476 7.02698 85.5007 7.2689 85.1154 7.43152C84.73 7.59414 84.3147 7.67389 83.8965 7.66551C83.0542 7.65209 82.2501 7.31141 81.6544 6.71563C81.0587 6.11985 80.7182 5.31568 80.705 4.4733Z" fill="white"/>
<path d="M105.727 4.47328C105.726 4.06028 105.811 3.6517 105.975 3.27284C106.14 2.89397 106.381 2.55312 106.683 2.27178C107.272 1.67584 108.072 1.33655 108.91 1.32781C109.747 1.31907 110.555 1.64151 111.156 2.22504C111.454 2.51698 111.689 2.86731 111.845 3.2542C112.001 3.64109 112.076 4.05615 112.065 4.47328C112.07 4.88965 111.993 5.30304 111.837 5.68911C111.681 6.07518 111.449 6.42611 111.156 6.72153C110.87 7.02688 110.523 7.26869 110.138 7.4312C109.752 7.59372 109.337 7.67339 108.919 7.6649C108.499 7.66924 108.082 7.58675 107.695 7.42233C107.308 7.25791 106.959 7.01503 106.671 6.7094C106.37 6.41996 106.132 6.07261 105.97 5.68822C105.807 5.30383 105.725 4.89047 105.727 4.47328ZM106.403 14.0257H111.459V36.1123H106.403V14.0257Z" fill="white"/>
<path d="M118.682 36.1123V14.0257H123.434V17.6365C124.304 16.2468 125.52 15.107 126.964 14.3286C128.526 13.5718 130.249 13.2039 131.985 13.2562C133.426 13.217 134.859 13.483 136.19 14.0366C137.305 14.5218 138.251 15.3292 138.904 16.3553C139.297 17.0119 139.58 17.7281 139.743 18.4757C139.84 19.011 139.902 19.5518 139.93 20.0951C139.976 20.8019 139.999 21.6753 139.999 22.7157V36.1123H134.897V24.7649C134.897 21.8762 134.544 19.9502 133.837 18.9869C133.13 18.0236 131.876 17.5425 130.075 17.5433C128.988 17.5238 127.91 17.7421 126.917 18.1835C126.028 18.5795 125.271 19.2224 124.736 20.0356C124.335 20.643 124.072 21.3312 123.967 22.0513C123.78 23.3745 123.702 24.7107 123.734 26.0467V36.1117L118.682 36.1123Z" fill="white"/>
<path d="M86.4369 14.0246V24.4621C84.7351 24.6749 83.0072 24.5024 81.3811 23.9574V14.0276L86.4369 14.0246Z" fill="white"/>
<path d="M86.4369 31.5571V36.1142H81.3811V31.4432C83.0515 31.7299 84.7552 31.7683 86.4369 31.5571Z" fill="white"/>
<path d="M93.8923 29.7002V36.1142H98.9481V27.1203C97.3627 28.1633 95.6672 29.0286 93.8923 29.7002ZM93.8923 0V22.2544C96.3109 21.0027 98.1102 19.4123 98.9008 17.8511C98.9196 17.8559 98.9342 17.856 98.9481 17.8602V0H93.8923Z" fill="white"/>
<path d="M103.071 18.8992C102.747 17.8953 101.833 17.1471 100.5 16.6764C100.579 17.1782 100.524 17.6918 100.343 18.1661C100.029 18.965 99.5547 19.691 98.9493 20.2993C97.4945 21.7531 95.7795 22.9207 93.8935 23.7412C93.0019 24.1534 92.086 24.5112 91.1509 24.8123C89.6199 25.3158 88.0403 25.6569 86.438 25.8306C84.7495 26.0592 83.0327 25.9591 81.3823 25.5356C80.5894 25.338 79.8622 24.9357 79.2733 24.3692C78.9998 24.0915 78.7945 23.7541 78.6736 23.3835C78.6542 23.3229 78.6354 23.2625 78.6208 23.2019C77.3928 24.6159 76.8639 26.0342 77.2595 27.2532C77.297 27.3746 77.3448 27.4926 77.4025 27.6058C77.9786 28.7672 79.4115 29.5293 81.3823 29.8668C83.0566 30.1236 84.7591 30.1398 86.438 29.9147C88.3212 29.6859 90.1773 29.2726 91.9797 28.6811C92.6364 28.4672 93.2792 28.2387 93.8935 27.9915C95.6718 27.2995 97.3674 26.4119 98.9493 25.3448C101.378 23.6782 102.934 21.8121 103.167 20.16C103.232 19.7375 103.199 19.3059 103.072 18.898" fill="#FFB600"/>
</svg>
