<svg width="46" height="46" viewBox="0 0 46 46" fill="none" xmlns="http://www.w3.org/2000/svg">
<path d="M46 13.876H0V0H46V13.876ZM2.26239 11.6137H43.7376V2.2627H2.26239V11.6137Z" fill="#FFA332"/>
<path d="M46 46.0001H0V11.6127H46V46.0001ZM2.26239 43.7378H43.7376V13.8752H2.26239V43.7378Z" fill="#FFA332"/>
<path d="M31.9744 5.73132H34.2367V8.29537H31.9744V5.73132Z" fill="#FFA332"/>
<path d="M37.8564 5.73132H40.1187V8.29537H37.8564V5.73132Z" fill="#FFA332"/>
<path d="M6.03296 5.8822H12.669V8.1445H6.03296V5.8822Z" fill="#FFA332"/>
<path d="M13.4233 39.967C11.3118 39.967 9.35131 38.7603 8.44605 36.7998L7.69208 35.4424C7.08898 34.0849 6.93811 32.577 7.39033 31.2194C7.84295 29.862 8.8987 28.6554 10.2557 28.0523L14.7803 25.79C15.5343 25.4882 16.2887 25.1869 17.1935 25.1869C19.305 25.1869 21.2655 26.3935 22.1708 28.354L22.9248 29.7115C23.5279 31.0689 23.6787 32.5769 23.2265 33.9344C22.7739 35.2918 21.7182 36.4985 20.3611 37.1016L15.8365 39.3639C15.0822 39.6652 14.1773 39.967 13.4233 39.967ZM17.194 27.5992C16.7414 27.5992 16.2891 27.7501 15.8365 27.9009L11.312 30.1632C10.558 30.6159 9.95451 31.2189 9.65276 31.9729C9.35141 32.7273 9.35141 33.6321 9.80364 34.3862L10.5576 35.7436C11.3116 37.252 13.2726 38.0059 14.9314 37.252L19.456 34.9897C20.2099 34.5371 20.8134 33.934 21.1151 33.18C21.4169 32.426 21.4169 31.5208 20.9643 30.7667L20.2103 29.4093C19.6068 28.2027 18.5511 27.5992 17.194 27.5992V27.5992Z" fill="#FFA332"/>
<path d="M28.6559 32.4267C26.5444 32.4267 24.5839 31.2201 23.6786 29.2596L22.9246 28.053C21.5672 25.338 22.7738 22.02 25.4887 20.6629L30.0133 18.4006C30.7672 18.0988 31.5216 17.7975 32.4265 17.7975C34.538 17.7975 36.4985 19.0041 37.4038 20.9646L38.1577 22.3221C38.7608 23.6795 38.9117 25.1875 38.4595 26.545C38.0069 27.9024 36.9511 29.1091 35.5941 29.7122L31.0695 31.9744C30.3151 32.2758 29.4103 32.4267 28.6559 32.4267L28.6559 32.4267ZM32.4265 20.059C31.9739 20.059 31.5217 20.2098 31.0691 20.3607L26.5445 22.623C24.8853 23.377 24.2822 25.338 25.0361 26.9968L25.7901 28.3542C26.5441 29.8626 28.5051 30.6165 30.1639 29.8626L34.6885 27.6003C35.4424 27.1476 36.0459 26.5446 36.3476 25.7906C36.6494 25.0366 36.6494 24.1314 36.1968 23.3773L35.4428 22.0199C34.8397 20.8129 33.784 20.059 32.4265 20.059L32.4265 20.059Z" fill="#FFA332"/>
<path d="M28.4888 24.9882L29.4817 27.0212L17.2841 32.9789L16.2913 30.9459L28.4888 24.9882Z" fill="#FFA332"/>
</svg>
