<svg width="41" height="41" viewBox="0 0 41 41" fill="none" xmlns="http://www.w3.org/2000/svg">
<path d="M11.5625 24.4688L20.6719 15.3594M16.5312 29.4375L20.6719 25.2969M2.31068 20.4706L20.5294 2.25181C21.1505 1.63056 21.9929 1.28144 22.8714 1.28125H36.4062C37.2848 1.28125 38.1273 1.63024 38.7485 2.25146C39.3697 2.87267 39.7187 3.71522 39.7187 4.59375V18.1286C39.7186 19.0071 39.3694 19.8495 38.7482 20.4706L20.5294 38.6893C19.9082 39.3103 19.0658 39.6592 18.1875 39.6592C17.3091 39.6592 16.4667 39.3103 15.8456 38.6893L2.31068 25.1544C1.68968 24.5333 1.34082 23.6909 1.34082 22.8125C1.34082 21.9341 1.68968 21.0917 2.31068 20.4706V20.4706Z" stroke="#FFA600" stroke-width="2.5" stroke-linecap="round" stroke-linejoin="round"/>
</svg>
