<svg width="48" height="44" viewBox="0 0 48 44" fill="none" xmlns="http://www.w3.org/2000/svg">
<path d="M47.205 7.01139C46.9691 6.89315 46.7062 6.83921 46.4429 6.85501C46.1795 6.87081 45.925 6.95579 45.705 7.10139L31.5 16.6114V8.34639C31.5004 8.06111 31.4195 7.78162 31.2668 7.54069C31.114 7.29977 30.8957 7.1074 30.6375 6.98616C30.3792 6.86492 30.0918 6.81983 29.8088 6.85618C29.5259 6.89253 29.2592 7.00881 29.04 7.19139L17.22 16.9564H12V2.88639C12.0085 2.53965 11.8965 2.20068 11.6832 1.92719C11.4699 1.65371 11.1684 1.46259 10.83 1.38639L4.83 0.0363938C4.60862 -0.0132796 4.37887 -0.0120895 4.15802 0.0398743C3.93718 0.091838 3.73099 0.193222 3.555 0.336394C3.37491 0.482275 3.23108 0.6679 3.13479 0.878705C3.0385 1.08951 2.99236 1.31976 3 1.55139V16.9564H1.5C1.10217 16.9564 0.720644 17.1144 0.439339 17.3957C0.158035 17.677 0 18.0586 0 18.4564V42.4564C0 42.8542 0.158035 43.2357 0.439339 43.517C0.720644 43.7983 1.10217 43.9564 1.5 43.9564H46.5C46.8978 43.9564 47.2793 43.7983 47.5606 43.517C47.8419 43.2357 48 42.8542 48 42.4564V8.34639C48.002 8.07249 47.9289 7.80327 47.7888 7.56793C47.6486 7.33259 47.4467 7.14012 47.205 7.01139ZM6 3.45639L8.99999 4.11639V16.9564H6V3.45639ZM45 40.9564H3V19.9564H17.745C18.0955 19.9571 18.4351 19.835 18.705 19.6114L28.5 11.5114V19.4314C28.4996 19.7039 28.5734 19.9713 28.7135 20.2051C28.8537 20.4388 29.0548 20.6299 29.2954 20.7579C29.536 20.8859 29.8069 20.9459 30.079 20.9316C30.3511 20.9172 30.6142 20.829 30.84 20.6764L45 11.1664V40.9564Z" fill="#FFA332"/>
</svg>
