<svg width="88" height="88" viewBox="0 0 88 88" fill="none" xmlns="http://www.w3.org/2000/svg">
<path d="M30.4246 33.8683V16.0903C30.4246 14.9054 29.6347 14.1148 28.4491 14.1148C25.0909 14.1148 22.5232 11.5473 22.5232 8.18894V2.26232C22.5232 1.07748 23.3131 0.286812 24.4987 0.286812C25.6836 0.286812 26.4742 1.0767 26.4742 2.26232V8.18814C26.4742 9.37298 27.2641 10.1637 28.4498 10.1637C31.808 10.1637 34.3757 12.7311 34.3757 16.0895V33.8675C34.3757 35.0524 33.5858 35.843 32.4001 35.843C31.2145 35.843 30.4246 35.0531 30.4246 33.8683V33.8683ZM18.5722 20.0406C19.7571 20.0406 20.5477 19.2507 20.5477 18.0651V14.115C20.5477 10.7568 17.9802 8.18914 14.6219 8.18914C13.4362 8.18914 12.6463 7.39847 12.6463 6.21363V2.26269C12.6463 1.07784 11.8564 0.287172 10.6708 0.287172C9.48591 0.287954 8.69601 1.07784 8.69601 2.26269V6.21363C8.69601 9.57175 11.2635 12.1394 14.6219 12.1394C15.8068 12.1394 16.5975 12.9293 16.5975 14.115V18.0659C16.5975 19.2507 17.3874 20.0406 18.5722 20.0406V20.0406ZM87.7097 85.227C87.7097 86.4118 86.9198 87.2025 85.7342 87.2025H2.76997C1.58511 87.2025 0.794434 86.4126 0.794434 85.227C0.794434 84.0421 1.58433 83.2515 2.76997 83.2515H6.72098V57.5725C6.72098 56.3877 7.51087 55.597 8.69651 55.597H10.6721L10.6713 23.9919C10.6713 22.807 11.4612 22.0164 12.6468 22.0164H24.4992C25.6841 22.0164 26.4748 22.8063 26.4748 23.9919V37.8188H38.3271C39.512 37.8188 40.3027 38.6087 40.3027 39.7943V55.5969H51.3644L64.5995 42.362C65.1923 41.7692 65.9822 41.5721 66.7722 41.967C67.5621 42.362 67.9571 42.9548 67.9571 43.7447V52.8316L78.4268 42.362C79.0196 41.7692 79.8095 41.5721 80.5995 41.9671C81.3894 42.362 81.7844 42.9548 81.7844 43.7447V83.2502H85.7354C86.9202 83.2509 87.7101 84.0408 87.7101 85.2257L87.7097 85.227ZM26.4726 41.7714V55.5983H36.3495V41.7714H26.4726ZM14.621 55.5983H22.5224V25.9692L14.621 25.9685V55.5983ZM69.9298 83.2533V73.3766H18.5712V83.2533H69.9298ZM77.8312 83.2533V48.4869L67.3615 58.9564C66.7687 59.5492 65.9788 59.7463 65.1888 59.3514C64.3989 59.1535 64.0039 58.3636 64.0039 57.5737V48.4868L53.5342 58.9564C53.1392 59.3513 52.7443 59.5484 52.1515 59.5484H10.6694V83.2513H14.6204V71.399C14.6204 70.2142 15.4103 69.4235 16.5959 69.4235H71.9047C73.0896 69.4235 73.8802 70.2134 73.8802 71.399V83.2513L77.8312 83.2533Z" fill="#1E312A"/>
</svg>
